<svg width="151" height="42" viewBox="0 0 151 42" fill="none" xmlns="http://www.w3.org/2000/svg">
<path d="M0 4C0 1.79086 1.79086 0 4 0H147C149.209 0 151 1.79086 151 4V38C151 40.2091 149.209 42 147 42H4C1.79086 42 0 40.2091 0 38V4Z" fill="#5542F6"/>
<path d="M15.9999 14.3333C12.3199 14.3333 9.33325 17.32 9.33325 21C9.33325 24.68 12.3199 27.6666 15.9999 27.6666C19.6799 27.6666 22.6666 24.68 22.6666 21C22.6666 17.32 19.6799 14.3333 15.9999 14.3333ZM19.3333 21.6666H16.6666V24.3333H15.3333V21.6666H12.6666V20.3333H15.3333V17.6666H16.6666V20.3333H19.3333V21.6666Z" fill="#FBFAFC"/>
<path d="M32.98 26V15.92H34.464L39.427 23.41V15.92H40.911V26H39.427L34.464 18.503V26H32.98ZM46.2178 26.21C45.4664 26.21 44.8061 26.0467 44.2368 25.72C43.6721 25.3887 43.2311 24.929 42.9138 24.341C42.6011 23.7483 42.4448 23.0623 42.4448 22.283C42.4448 21.457 42.5988 20.7407 42.9068 20.134C43.2194 19.5273 43.6534 19.0583 44.2088 18.727C44.7641 18.3957 45.4104 18.23 46.1478 18.23C46.9178 18.23 47.5734 18.4097 48.1148 18.769C48.6561 19.1237 49.0598 19.63 49.3258 20.288C49.5964 20.946 49.7038 21.7277 49.6478 22.633H48.1848V22.101C48.1754 21.2237 48.0074 20.575 47.6808 20.155C47.3588 19.735 46.8664 19.525 46.2038 19.525C45.4711 19.525 44.9204 19.756 44.5518 20.218C44.1831 20.68 43.9988 21.3473 43.9988 22.22C43.9988 23.0507 44.1831 23.6947 44.5518 24.152C44.9204 24.6047 45.4524 24.831 46.1478 24.831C46.6051 24.831 46.9994 24.7283 47.3308 24.523C47.6668 24.313 47.9281 24.0143 48.1148 23.627L49.5498 24.082C49.2558 24.7587 48.8101 25.2837 48.2128 25.657C47.6154 26.0257 46.9504 26.21 46.2178 26.21ZM43.5228 22.633V21.492H48.9198V22.633H43.5228ZM52.5548 26L50.2448 18.433L51.6938 18.44L53.2758 23.627L54.8718 18.44H56.1318L57.7278 23.627L59.3098 18.44H60.7518L58.4418 26H57.2658L55.5018 20.526L53.7308 26H52.5548ZM64.1081 26L67.3841 15.92H69.4911L72.7671 26H71.2481L68.2311 16.802H68.6091L65.6271 26H64.1081ZM65.8091 23.725V22.353H71.0731V23.725H65.8091ZM78.0755 26C77.5995 26.0933 77.1329 26.133 76.6755 26.119C76.2182 26.105 75.8099 26.0163 75.4505 25.853C75.0912 25.6897 74.8205 25.433 74.6385 25.083C74.4752 24.7703 74.3865 24.453 74.3725 24.131C74.3632 23.8043 74.3585 23.4357 74.3585 23.025V16.34H75.8285V22.955C75.8285 23.2583 75.8309 23.522 75.8355 23.746C75.8449 23.97 75.8939 24.159 75.9825 24.313C76.1505 24.6023 76.4165 24.768 76.7805 24.81C77.1492 24.8473 77.5809 24.831 78.0755 24.761V26ZM72.9095 19.616V18.44H78.0755V19.616H72.9095ZM83.9955 26C83.5195 26.0933 83.0528 26.133 82.5955 26.119C82.1381 26.105 81.7298 26.0163 81.3705 25.853C81.0111 25.6897 80.7405 25.433 80.5585 25.083C80.3951 24.7703 80.3065 24.453 80.2925 24.131C80.2831 23.8043 80.2785 23.4357 80.2785 23.025V16.34H81.7485V22.955C81.7485 23.2583 81.7508 23.522 81.7555 23.746C81.7648 23.97 81.8138 24.159 81.9025 24.313C82.0705 24.6023 82.3365 24.768 82.7005 24.81C83.0691 24.8473 83.5008 24.831 83.9955 24.761V26ZM78.8295 19.616V18.44H83.9955V19.616H78.8295ZM88.6006 26.21C87.8492 26.21 87.1889 26.0467 86.6196 25.72C86.0549 25.3887 85.6139 24.929 85.2966 24.341C84.9839 23.7483 84.8276 23.0623 84.8276 22.283C84.8276 21.457 84.9816 20.7407 85.2896 20.134C85.6022 19.5273 86.0362 19.0583 86.5916 18.727C87.1469 18.3957 87.7932 18.23 88.5306 18.23C89.3006 18.23 89.9562 18.4097 90.4976 18.769C91.0389 19.1237 91.4426 19.63 91.7086 20.288C91.9792 20.946 92.0866 21.7277 92.0306 22.633H90.5676V22.101C90.5582 21.2237 90.3902 20.575 90.0636 20.155C89.7416 19.735 89.2492 19.525 88.5866 19.525C87.8539 19.525 87.3032 19.756 86.9346 20.218C86.5659 20.68 86.3816 21.3473 86.3816 22.22C86.3816 23.0507 86.5659 23.6947 86.9346 24.152C87.3032 24.6047 87.8352 24.831 88.5306 24.831C88.9879 24.831 89.3822 24.7283 89.7136 24.523C90.0496 24.313 90.3109 24.0143 90.4976 23.627L91.9326 24.082C91.6386 24.7587 91.1929 25.2837 90.5956 25.657C89.9982 26.0257 89.3332 26.21 88.6006 26.21ZM85.9056 22.633V21.492H91.3026V22.633H85.9056ZM98.702 26V22.283C98.702 21.989 98.6763 21.688 98.625 21.38C98.5783 21.0673 98.485 20.778 98.345 20.512C98.2097 20.246 98.016 20.0313 97.764 19.868C97.5167 19.7047 97.1923 19.623 96.791 19.623C96.5297 19.623 96.2823 19.6673 96.049 19.756C95.8157 19.84 95.6103 19.9777 95.433 20.169C95.2603 20.3603 95.1227 20.6123 95.02 20.925C94.922 21.2377 94.873 21.618 94.873 22.066L93.963 21.723C93.963 21.037 94.0913 20.4327 94.348 19.91C94.6047 19.3827 94.9733 18.972 95.454 18.678C95.9347 18.384 96.5157 18.237 97.197 18.237C97.7197 18.237 98.1583 18.321 98.513 18.489C98.8677 18.657 99.1547 18.8787 99.374 19.154C99.598 19.4247 99.7683 19.721 99.885 20.043C100.002 20.365 100.081 20.68 100.123 20.988C100.165 21.296 100.186 21.5667 100.186 21.8V26H98.702ZM93.389 26V18.44H94.698V20.624H94.873V26H93.389ZM104.917 26.21C104.212 26.21 103.603 26.035 103.09 25.685C102.581 25.335 102.187 24.859 101.907 24.257C101.631 23.6503 101.494 22.969 101.494 22.213C101.494 21.4523 101.634 20.7733 101.914 20.176C102.194 19.574 102.59 19.1003 103.104 18.755C103.622 18.405 104.235 18.23 104.945 18.23C105.659 18.23 106.258 18.405 106.744 18.755C107.234 19.1003 107.602 19.574 107.85 20.176C108.102 20.778 108.228 21.457 108.228 22.213C108.228 22.969 108.102 23.648 107.85 24.25C107.598 24.852 107.227 25.3303 106.737 25.685C106.247 26.035 105.64 26.21 104.917 26.21ZM105.12 24.887C105.6 24.887 105.992 24.7727 106.296 24.544C106.599 24.3153 106.821 24.0003 106.961 23.599C107.101 23.1977 107.171 22.7357 107.171 22.213C107.171 21.6903 107.098 21.2283 106.954 20.827C106.814 20.4257 106.594 20.113 106.296 19.889C106.002 19.665 105.626 19.553 105.169 19.553C104.683 19.553 104.284 19.672 103.972 19.91C103.659 20.148 103.426 20.4677 103.272 20.869C103.122 21.2703 103.048 21.7183 103.048 22.213C103.048 22.7123 103.122 23.165 103.272 23.571C103.426 23.9723 103.654 24.292 103.958 24.53C104.266 24.768 104.653 24.887 105.12 24.887ZM107.171 26V20.561H107.003V15.92H108.473V26H107.171ZM112.566 26.21C112.006 26.21 111.537 26.1073 111.159 25.902C110.781 25.692 110.494 25.4167 110.298 25.076C110.107 24.7307 110.011 24.3527 110.011 23.942C110.011 23.5593 110.079 23.2233 110.214 22.934C110.35 22.6447 110.55 22.3997 110.816 22.199C111.082 21.9937 111.409 21.828 111.796 21.702C112.132 21.604 112.513 21.5177 112.937 21.443C113.362 21.3683 113.808 21.2983 114.274 21.233C114.746 21.1677 115.212 21.1023 115.674 21.037L115.142 21.331C115.152 20.7383 115.026 20.2997 114.764 20.015C114.508 19.7257 114.064 19.581 113.434 19.581C113.038 19.581 112.674 19.6743 112.342 19.861C112.011 20.043 111.78 20.3463 111.649 20.771L110.284 20.351C110.471 19.7023 110.826 19.1867 111.348 18.804C111.876 18.4213 112.576 18.23 113.448 18.23C114.125 18.23 114.713 18.3467 115.212 18.58C115.716 18.8087 116.085 19.1727 116.318 19.672C116.44 19.9193 116.514 20.1807 116.542 20.456C116.57 20.7313 116.584 21.0277 116.584 21.345V26H115.289V24.271L115.541 24.495C115.229 25.0737 114.83 25.5053 114.344 25.79C113.864 26.07 113.271 26.21 112.566 26.21ZM112.825 25.013C113.241 25.013 113.598 24.9407 113.896 24.796C114.195 24.6467 114.435 24.4577 114.617 24.229C114.799 24.0003 114.918 23.7623 114.974 23.515C115.054 23.291 115.098 23.039 115.107 22.759C115.121 22.479 115.128 22.255 115.128 22.087L115.604 22.262C115.142 22.332 114.722 22.395 114.344 22.451C113.966 22.507 113.623 22.563 113.315 22.619C113.012 22.6703 112.741 22.7333 112.503 22.808C112.303 22.878 112.123 22.962 111.964 23.06C111.81 23.158 111.687 23.277 111.593 23.417C111.505 23.557 111.46 23.7273 111.46 23.928C111.46 24.124 111.509 24.306 111.607 24.474C111.705 24.6373 111.855 24.768 112.055 24.866C112.256 24.964 112.513 25.013 112.825 25.013ZM123.708 26V22.283C123.708 21.989 123.682 21.688 123.631 21.38C123.584 21.0673 123.491 20.778 123.351 20.512C123.216 20.246 123.022 20.0313 122.77 19.868C122.523 19.7047 122.198 19.623 121.797 19.623C121.536 19.623 121.288 19.6673 121.055 19.756C120.822 19.84 120.616 19.9777 120.439 20.169C120.266 20.3603 120.129 20.6123 120.026 20.925C119.928 21.2377 119.879 21.618 119.879 22.066L118.969 21.723C118.969 21.037 119.097 20.4327 119.354 19.91C119.611 19.3827 119.979 18.972 120.46 18.678C120.941 18.384 121.522 18.237 122.203 18.237C122.726 18.237 123.164 18.321 123.519 18.489C123.874 18.657 124.161 18.8787 124.38 19.154C124.604 19.4247 124.774 19.721 124.891 20.043C125.008 20.365 125.087 20.68 125.129 20.988C125.171 21.296 125.192 21.5667 125.192 21.8V26H123.708ZM118.395 26V18.44H119.704V20.624H119.879V26H118.395ZM130.153 26.21C129.379 26.21 128.721 26.0373 128.179 25.692C127.638 25.3467 127.223 24.873 126.933 24.271C126.649 23.669 126.504 22.9853 126.499 22.22C126.504 21.4407 126.653 20.7523 126.947 20.155C127.241 19.553 127.661 19.0817 128.207 18.741C128.753 18.4003 129.409 18.23 130.174 18.23C131 18.23 131.705 18.4353 132.288 18.846C132.876 19.2567 133.264 19.819 133.45 20.533L131.994 20.953C131.85 20.5283 131.612 20.1993 131.28 19.966C130.954 19.728 130.578 19.609 130.153 19.609C129.673 19.609 129.278 19.7233 128.97 19.952C128.662 20.176 128.434 20.484 128.284 20.876C128.135 21.268 128.058 21.716 128.053 22.22C128.058 22.9993 128.235 23.6293 128.585 24.11C128.94 24.5907 129.463 24.831 130.153 24.831C130.625 24.831 131.005 24.7237 131.294 24.509C131.588 24.2897 131.812 23.977 131.966 23.571L133.45 23.921C133.203 24.6583 132.795 25.2253 132.225 25.622C131.656 26.014 130.965 26.21 130.153 26.21ZM138.024 26.21C137.273 26.21 136.613 26.0467 136.043 25.72C135.479 25.3887 135.038 24.929 134.72 24.341C134.408 23.7483 134.251 23.0623 134.251 22.283C134.251 21.457 134.405 20.7407 134.713 20.134C135.026 19.5273 135.46 19.0583 136.015 18.727C136.571 18.3957 137.217 18.23 137.954 18.23C138.724 18.23 139.38 18.4097 139.921 18.769C140.463 19.1237 140.866 19.63 141.132 20.288C141.403 20.946 141.51 21.7277 141.454 22.633H139.991V22.101C139.982 21.2237 139.814 20.575 139.487 20.155C139.165 19.735 138.673 19.525 138.01 19.525C137.278 19.525 136.727 19.756 136.358 20.218C135.99 20.68 135.805 21.3473 135.805 22.22C135.805 23.0507 135.99 23.6947 136.358 24.152C136.727 24.6047 137.259 24.831 137.954 24.831C138.412 24.831 138.806 24.7283 139.137 24.523C139.473 24.313 139.735 24.0143 139.921 23.627L141.356 24.082C141.062 24.7587 140.617 25.2837 140.019 25.657C139.422 26.0257 138.757 26.21 138.024 26.21ZM135.329 22.633V21.492H140.726V22.633H135.329Z" fill="#FBFAFC"/>
</svg>
