<svg width="32" height="32" viewBox="0 0 32 32" fill="none" xmlns="http://www.w3.org/2000/svg">
<path fill-rule="evenodd" clip-rule="evenodd" d="M12 22.8H20V9.2H12V22.8Z" fill="#FF5F00"/>
<path fill-rule="evenodd" clip-rule="evenodd" d="M12.6005 16C12.6005 13.1928 13.9299 10.6926 16 9.08149C14.4862 7.90302 12.5758 7.2 10.4996 7.2C5.58436 7.2 1.59998 11.1397 1.59998 16C1.59998 20.86 5.58436 24.8 10.4996 24.8C12.5758 24.8 14.4862 24.097 16 22.9185C13.9299 21.3071 12.6005 18.8072 12.6005 16Z" fill="#EB001B"/>
<path fill-rule="evenodd" clip-rule="evenodd" d="M30.3238 21.4531V21.1113H30.2329L30.1286 21.3462L30.024 21.1113H29.9331V21.4531H29.9973V21.1954L30.0952 21.4174H30.1617L30.2598 21.1947V21.4531H30.3238ZM29.7486 21.4531V21.1698H29.8649V21.1118H29.5686V21.1698H29.6848V21.4531H29.7486ZM30.6036 16C30.6036 20.86 26.5911 24.8 21.6411 24.8C19.5502 24.8 17.6266 24.097 16.1018 22.9185C18.1865 21.3071 19.5253 18.8072 19.5253 16C19.5253 13.1928 18.1865 10.6926 16.1018 9.08149C17.6266 7.90302 19.5502 7.2 21.6411 7.2C26.5911 7.2 30.6036 11.1397 30.6036 16Z" fill="#F79E1B"/>
</svg>
